<svg xmlns="http://www.w3.org/2000/svg" viewBox="0 0 512 512" width="512" height="512">
  <defs>
    <linearGradient id="g" x1="0" y1="0" x2="1" y2="1">
      <stop offset="0" stop-color="#9333ea"/>
      <stop offset="1" stop-color="#ec4899"/>
    </linearGradient>
  </defs>
  <rect width="512" height="512" rx="112" fill="url(#g)"/>
  <path fill="#ffffff" d="M150 170h170a40 40 0 0 1 40 40v18h22a20 20 0 0 1 20 20v60a20 20 0 0 1-20 20h-22v18a40 40 0 0 1-40 40H150a40 40 0 0 1-40-40V210a40 40 0 0 1 40-40zm0 40v132h170v-18h-44a50 50 0 0 1 0-100h44v-14H150zm170 54h-44a10 10 0 0 0 0 20h44v-20z"/>
</svg>
